<svg width="32" height="32" viewBox="0 0 32 32" fill="none" xmlns="http://www.w3.org/2000/svg">
<mask id="path-1-inside-1_36_56056" fill="white">
<path d="M0 6.4C0 4.15979 0 3.03969 0.435974 2.18404C0.819467 1.43139 1.43139 0.819467 2.18404 0.435974C3.03969 0 4.15979 0 6.4 0H25.6C27.8402 0 28.9603 0 29.816 0.435974C30.5686 0.819467 31.1805 1.43139 31.564 2.18404C32 3.03969 32 4.15979 32 6.4V25.6C32 27.8402 32 28.9603 31.564 29.816C31.1805 30.5686 30.5686 31.1805 29.816 31.564C28.9603 32 27.8402 32 25.6 32H6.4C4.15979 32 3.03969 32 2.18404 31.564C1.43139 31.1805 0.819467 30.5686 0.435974 29.816C0 28.9603 0 27.8402 0 25.6V6.4Z"/>
</mask>
<path d="M0 6.4C0 4.15979 0 3.03969 0.435974 2.18404C0.819467 1.43139 1.43139 0.819467 2.18404 0.435974C3.03969 0 4.15979 0 6.4 0H25.6C27.8402 0 28.9603 0 29.816 0.435974C30.5686 0.819467 31.1805 1.43139 31.564 2.18404C32 3.03969 32 4.15979 32 6.4V25.6C32 27.8402 32 28.9603 31.564 29.816C31.1805 30.5686 30.5686 31.1805 29.816 31.564C28.9603 32 27.8402 32 25.6 32H6.4C4.15979 32 3.03969 32 2.18404 31.564C1.43139 31.1805 0.819467 30.5686 0.435974 29.816C0 28.9603 0 27.8402 0 25.6V6.4Z" fill="white"/>
<path d="M31.564 29.816L30.673 29.362L31.564 29.816ZM29.816 31.564L29.362 30.673L29.816 31.564ZM29.816 0.435974L30.27 -0.455033L29.816 0.435974ZM31.564 2.18404L30.673 2.63803L31.564 2.18404ZM2.18404 0.435974L1.73005 -0.455033L2.18404 0.435974ZM0.435974 2.18404L-0.455033 1.73005L0.435974 2.18404ZM6.4 1H25.6V-1H6.4V1ZM31 6.4V25.6H33V6.4H31ZM25.6 31H6.4V33H25.6V31ZM1 25.6V6.4H-1V25.6H1ZM6.4 31C5.26339 31 4.47108 30.9992 3.85424 30.9488C3.24907 30.8994 2.90138 30.8072 2.63803 30.673L1.73005 32.455C2.32234 32.7568 2.96253 32.8826 3.69138 32.9422C4.40855 33.0008 5.2964 33 6.4 33V31ZM-1 25.6C-1 26.7036 -1.00078 27.5914 -0.942182 28.3086C-0.882633 29.0375 -0.75682 29.6777 -0.455033 30.27L1.32698 29.362C1.19279 29.0986 1.10062 28.7509 1.05118 28.1458C1.00078 27.5289 1 26.7366 1 25.6H-1ZM2.63803 30.673C2.07354 30.3854 1.6146 29.9265 1.32698 29.362L-0.455033 30.27C0.0243343 31.2108 0.789237 31.9757 1.73005 32.455L2.63803 30.673ZM31 25.6C31 26.7366 30.9992 27.5289 30.9488 28.1458C30.8994 28.7509 30.8072 29.0986 30.673 29.362L32.455 30.27C32.7568 29.6777 32.8826 29.0375 32.9422 28.3086C33.0008 27.5914 33 26.7036 33 25.6H31ZM25.6 33C26.7036 33 27.5914 33.0008 28.3086 32.9422C29.0375 32.8826 29.6777 32.7568 30.27 32.455L29.362 30.673C29.0986 30.8072 28.7509 30.8994 28.1458 30.9488C27.5289 30.9992 26.7366 31 25.6 31V33ZM30.673 29.362C30.3854 29.9265 29.9265 30.3854 29.362 30.673L30.27 32.455C31.2108 31.9757 31.9757 31.2108 32.455 30.27L30.673 29.362ZM25.6 1C26.7366 1 27.5289 1.00078 28.1458 1.05118C28.7509 1.10062 29.0986 1.19279 29.362 1.32698L30.27 -0.455033C29.6777 -0.75682 29.0375 -0.882633 28.3086 -0.942182C27.5914 -1.00078 26.7036 -1 25.6 -1V1ZM33 6.4C33 5.2964 33.0008 4.40855 32.9422 3.69138C32.8826 2.96253 32.7568 2.32234 32.455 1.73005L30.673 2.63803C30.8072 2.90138 30.8994 3.24907 30.9488 3.85424C30.9992 4.47108 31 5.26339 31 6.4H33ZM29.362 1.32698C29.9265 1.6146 30.3854 2.07354 30.673 2.63803L32.455 1.73005C31.9757 0.789237 31.2108 0.0243343 30.27 -0.455033L29.362 1.32698ZM6.4 -1C5.2964 -1 4.40855 -1.00078 3.69138 -0.942182C2.96253 -0.882633 2.32234 -0.75682 1.73005 -0.455033L2.63803 1.32698C2.90138 1.19279 3.24907 1.10062 3.85424 1.05118C4.47108 1.00078 5.26339 1 6.4 1V-1ZM1 6.4C1 5.26339 1.00078 4.47108 1.05118 3.85424C1.10062 3.24907 1.19279 2.90138 1.32698 2.63803L-0.455033 1.73005C-0.75682 2.32234 -0.882633 2.96253 -0.942182 3.69138C-1.00078 4.40855 -1 5.2964 -1 6.4H1ZM1.73005 -0.455033C0.789237 0.0243343 0.0243343 0.789237 -0.455033 1.73005L1.32698 2.63803C1.6146 2.07354 2.07354 1.6146 2.63803 1.32698L1.73005 -0.455033Z" fill="#D5D8DD" mask="url(#path-1-inside-1_36_56056)"/>
<path fill-rule="evenodd" clip-rule="evenodd" d="M16 14.3333C15.0795 14.3333 14.3333 15.0795 14.3333 16C14.3333 16.9205 15.0795 17.6667 16 17.6667C16.9205 17.6667 17.6667 16.9205 17.6667 16C17.6667 15.0795 16.9205 14.3333 16 14.3333ZM12.6667 16C12.6667 14.1591 14.1591 12.6667 16 12.6667C17.8409 12.6667 19.3333 14.1591 19.3333 16C19.3333 17.8409 17.8409 19.3333 16 19.3333C14.1591 19.3333 12.6667 17.8409 12.6667 16Z" fill="#2E3238"/>
<path fill-rule="evenodd" clip-rule="evenodd" d="M16 7.66667C15.779 7.66667 15.567 7.75446 15.4107 7.91074C15.2545 8.06702 15.1667 8.27899 15.1667 8.5V8.64499C15.1649 9.07566 15.0373 9.49644 14.7995 9.85551C14.5617 10.2146 14.2241 10.4963 13.8283 10.6659C13.7578 10.6961 13.6837 10.7164 13.608 10.7263C13.2483 10.8523 12.8611 10.8833 12.4842 10.815C12.05 10.7362 11.6494 10.5293 11.3339 10.2207L11.3274 10.2143L11.2774 10.1643C11.2 10.0868 11.1078 10.025 11.0066 9.98304C10.9055 9.94111 10.797 9.91952 10.6875 9.91952C10.578 9.91952 10.4695 9.94111 10.3684 9.98304C10.2672 10.025 10.1753 10.0864 10.0979 10.1639L10.0973 10.1646C10.0198 10.242 9.95831 10.3339 9.91638 10.435C9.87444 10.5362 9.85286 10.6447 9.85286 10.7542C9.85286 10.8637 9.87444 10.9721 9.91638 11.0733C9.95831 11.1744 10.0198 11.2664 10.0973 11.3438L10.1541 11.4006C10.4626 11.716 10.6696 12.1167 10.7483 12.5508C10.8255 12.9764 10.7759 13.415 10.6062 13.8123C10.4516 14.2178 10.1808 14.5689 9.82754 14.8216C9.46712 15.0793 9.03748 15.2227 8.59449 15.2331L8.575 15.2333H8.5C8.27899 15.2333 8.06702 15.3211 7.91074 15.4774C7.75446 15.6337 7.66667 15.8457 7.66667 16.0667C7.66667 16.2877 7.75446 16.4996 7.91074 16.6559C8.06702 16.8122 8.27899 16.9 8.5 16.9H8.64499C9.07566 16.9017 9.49644 17.0293 9.85551 17.2671C10.2133 17.5041 10.4943 17.8402 10.6642 18.2343C10.8409 18.6369 10.8934 19.0831 10.815 19.5158C10.7362 19.95 10.5293 20.3506 10.2207 20.6661L10.2143 20.6726L10.1643 20.7226C10.0868 20.8 10.025 20.8922 9.98304 20.9934C9.94111 21.0945 9.91952 21.203 9.91952 21.3125C9.91952 21.422 9.94111 21.5305 9.98304 21.6316C10.025 21.7328 10.0864 21.8247 10.1639 21.9021L10.1646 21.9027C10.242 21.9802 10.3339 22.0417 10.435 22.0836C10.5362 22.1256 10.6447 22.1471 10.7542 22.1471C10.8637 22.1471 10.9721 22.1256 11.0733 22.0836C11.1745 22.0417 11.2664 21.9802 11.3438 21.9027L11.4006 21.8459C11.716 21.5374 12.1167 21.3304 12.5508 21.2517C12.9764 21.1745 13.415 21.2241 13.8123 21.3938C14.2178 21.5484 14.5689 21.8192 14.8216 22.1725C15.0793 22.5329 15.2227 22.9625 15.2331 23.4055L15.2333 23.425V23.5C15.2333 23.721 15.3211 23.933 15.4774 24.0893C15.6337 24.2455 15.8457 24.3333 16.0667 24.3333C16.2877 24.3333 16.4996 24.2455 16.6559 24.0893C16.8122 23.933 16.9 23.721 16.9 23.5V23.3583L16.9 23.355C16.9017 22.9243 17.0293 22.5036 17.2671 22.1445C17.5041 21.7866 17.8402 21.5056 18.2344 21.3358C18.637 21.1591 19.0832 21.1066 19.5158 21.185C19.95 21.2638 20.3506 21.4707 20.6661 21.7793L20.6726 21.7857L20.7226 21.8357C20.8 21.9132 20.8922 21.975 20.9934 22.017C21.0945 22.0589 21.203 22.0805 21.3125 22.0805C21.422 22.0805 21.5305 22.0589 21.6316 22.017C21.7328 21.975 21.8247 21.9136 21.9021 21.8361L21.9027 21.8354C21.9802 21.758 22.0417 21.6661 22.0836 21.5649C22.1256 21.4638 22.1471 21.3553 22.1471 21.2458C22.1471 21.1363 22.1256 21.0279 22.0836 20.9267C22.0417 20.8255 21.9802 20.7336 21.9027 20.6562L21.8459 20.5994C21.5374 20.284 21.3304 19.8833 21.2517 19.4492C21.1732 19.0165 21.2258 18.5703 21.4024 18.1677C21.5723 17.7736 21.8533 17.4375 22.2112 17.2005C22.5702 16.9627 22.991 16.8351 23.4217 16.8333L23.425 16.8333L23.5 16.8333C23.721 16.8333 23.933 16.7455 24.0893 16.5893C24.2455 16.433 24.3333 16.221 24.3333 16C24.3333 15.779 24.2455 15.567 24.0893 15.4107C23.933 15.2545 23.721 15.1667 23.5 15.1667H23.3583L23.355 15.1667C22.9243 15.1649 22.5036 15.0373 22.1445 14.7995C21.7854 14.5617 21.5037 14.2241 21.334 13.8283C21.3039 13.7578 21.2836 13.6837 21.2737 13.608C21.1477 13.2483 21.1167 12.8611 21.185 12.4842C21.2638 12.05 21.4707 11.6494 21.7793 11.3339L21.7857 11.3274L21.8357 11.2774C21.9132 11.2 21.975 11.1078 22.017 11.0066C22.0589 10.9055 22.0805 10.797 22.0805 10.6875C22.0805 10.578 22.0589 10.4695 22.017 10.3684C21.975 10.2672 21.9136 10.1753 21.8361 10.0979L21.8354 10.0973C21.758 10.0198 21.6661 9.95831 21.5649 9.91638C21.4638 9.87444 21.3553 9.85286 21.2458 9.85286C21.1363 9.85286 21.0279 9.87444 20.9267 9.91638C20.8256 9.95832 20.7336 10.0198 20.6562 10.0973L20.5994 10.1541C20.284 10.4626 19.8833 10.6696 19.4492 10.7483C19.0165 10.8268 18.5702 10.7742 18.1676 10.5975C17.7735 10.4277 17.4374 10.1467 17.2005 9.78885C16.9627 9.42977 16.8351 9.009 16.8333 8.57832L16.8333 8.575V8.5C16.8333 8.27899 16.7455 8.06702 16.5893 7.91074C16.433 7.75446 16.221 7.66667 16 7.66667ZM22.1667 18.5L22.9291 18.8365C22.8854 18.9355 22.8723 19.0453 22.8916 19.1518C22.9107 19.2571 22.9606 19.3544 23.0349 19.4314L23.0806 19.4771C23.3129 19.7092 23.4975 19.9851 23.6232 20.2885C23.7491 20.592 23.8138 20.9173 23.8138 21.2458C23.8138 21.5744 23.7491 21.8997 23.6232 22.2032C23.4974 22.5067 23.313 22.7824 23.0806 23.0146L22.4917 22.425L23.0813 23.0139C22.8491 23.2464 22.5733 23.4308 22.2698 23.5566C21.9664 23.6824 21.641 23.7471 21.3125 23.7471C20.984 23.7471 20.6586 23.6824 20.3551 23.5566C20.0518 23.4308 19.7762 23.2465 19.5441 23.0143L19.4981 22.9682C19.4211 22.8939 19.3238 22.8441 19.2185 22.825C19.112 22.8057 19.0022 22.8187 18.9031 22.8624L18.895 22.866C18.7979 22.9076 18.715 22.9767 18.6567 23.0647C18.5986 23.1525 18.5673 23.2552 18.5667 23.3604V23.5C18.5667 24.163 18.3033 24.7989 17.8344 25.2678C17.3656 25.7366 16.7297 26 16.0667 26C15.4036 26 14.7677 25.7366 14.2989 25.2678C13.8301 24.7989 13.5667 24.163 13.5667 23.5V23.437C13.5627 23.331 13.5277 23.2284 13.466 23.142C13.4027 23.0536 13.3144 22.9863 13.2123 22.9488C13.1959 22.9427 13.1796 22.9361 13.1635 22.9291C13.0645 22.8854 12.9547 22.8723 12.8482 22.8916C12.7428 22.9107 12.6456 22.9606 12.5686 23.0349L12.5229 23.0806C12.2908 23.3129 12.0149 23.4975 11.7115 23.6232C11.408 23.7491 11.0827 23.8138 10.7542 23.8138C10.4256 23.8138 10.1003 23.7491 9.79682 23.6232C9.49361 23.4976 9.21812 23.3134 8.98607 23.0813C8.75363 22.8491 8.56923 22.5733 8.44342 22.2698C8.31761 21.9664 8.25286 21.641 8.25286 21.3125C8.25286 20.984 8.31761 20.6586 8.44342 20.3551C8.56923 20.0517 8.75363 19.7759 8.98607 19.5437L9.03176 19.4981C9.10607 19.4211 9.15594 19.3238 9.17504 19.2185C9.19435 19.112 9.18131 19.0022 9.13761 18.9031L9.13401 18.895C9.09239 18.7979 9.02334 18.715 8.93526 18.6567C8.84753 18.5986 8.74479 18.5673 8.63958 18.5667H8.5C7.83696 18.5667 7.20107 18.3033 6.73223 17.8344C6.26339 17.3656 6 16.7297 6 16.0667C6 15.4036 6.26339 14.7677 6.73223 14.2989C7.20107 13.8301 7.83696 13.5667 8.5 13.5667H8.56303C8.66903 13.5627 8.7716 13.5277 8.85796 13.466C8.94636 13.4027 9.0137 13.3144 9.05122 13.2123C9.05728 13.1959 9.06386 13.1796 9.07095 13.1635C9.11465 13.0645 9.12768 12.9547 9.10837 12.8482C9.08927 12.7429 9.0394 12.6456 8.96508 12.5686L8.91941 12.5229C8.68696 12.2907 8.50257 12.015 8.37676 11.7115C8.25095 11.408 8.18619 11.0827 8.18619 10.7542C8.18619 10.4256 8.25095 10.1003 8.37676 9.79682C8.50251 9.49346 8.68679 9.21786 8.91908 8.98574C9.15119 8.75346 9.4268 8.56917 9.73015 8.44342C10.0336 8.31761 10.359 8.25286 10.6875 8.25286C11.016 8.25286 11.3414 8.31761 11.6449 8.44342C11.9483 8.56923 12.2241 8.75363 12.4562 8.98607L12.5019 9.03175C12.5789 9.10607 12.6762 9.15594 12.7815 9.17504C12.888 9.19435 12.9978 9.18131 13.0969 9.13761C13.1502 9.11406 13.2058 9.09624 13.2626 9.08435C13.3207 9.04491 13.3708 8.99436 13.41 8.93526C13.4681 8.84753 13.4993 8.74479 13.5 8.63958V8.5C13.5 7.83696 13.7634 7.20107 14.2322 6.73223C14.7011 6.26339 15.337 6 16 6C16.663 6 17.2989 6.26339 17.7678 6.73223C18.2366 7.20107 18.5 7.83696 18.5 8.5V8.57292C18.5007 8.67812 18.5319 8.78087 18.59 8.8686C18.6484 8.95667 18.7312 9.02577 18.8283 9.06738L18.8365 9.0709C18.9355 9.1146 19.0453 9.12768 19.1518 9.10837C19.2571 9.08928 19.3544 9.0394 19.4314 8.96509L19.4771 8.91941C19.7093 8.68696 19.985 8.50257 20.2885 8.37676C20.592 8.25095 20.9173 8.18619 21.2458 8.18619C21.5744 8.18619 21.8997 8.25095 22.2032 8.37676C22.5067 8.50257 22.7824 8.68697 23.0146 8.91941C23.2467 9.15145 23.4309 9.42694 23.5566 9.73015C23.6824 10.0336 23.7471 10.359 23.7471 10.6875C23.7471 11.016 23.6824 11.3414 23.5566 11.6449C23.4308 11.9482 23.2465 12.2238 23.0143 12.4559L22.9683 12.5019C22.8939 12.5789 22.8441 12.6762 22.825 12.7815C22.8057 12.888 22.8187 12.9978 22.8624 13.0969C22.8859 13.1502 22.9038 13.2058 22.9156 13.2626C22.9551 13.3207 23.0056 13.3708 23.0647 13.41C23.1525 13.4681 23.2552 13.4993 23.3604 13.5H23.5C24.163 13.5 24.7989 13.7634 25.2678 14.2322C25.7366 14.7011 26 15.337 26 16C26 16.663 25.7366 17.2989 25.2678 17.7678C24.7989 18.2366 24.163 18.5 23.5 18.5H23.4271C23.3219 18.5007 23.2191 18.5319 23.1314 18.59C23.0433 18.6484 22.9742 18.7312 22.9326 18.8283L22.1667 18.5Z" fill="#2E3238"/>
</svg>
